normalP042_grf.mot
version=1
nRows=30
nColumns=19
inDegrees=yes
endheader
time	1_ground_force_vx	1_ground_force_vy	1_ground_force_vz	1_ground_force_px	1_ground_force_py	1_ground_force_pz	1_ground_torque_x	1_ground_torque_y	1_ground_torque_z	2_ground_force_vx	2_ground_force_vy	2_ground_force_vz	2_ground_force_px	2_ground_force_py	2_ground_force_pz	2_ground_torque_x	2_ground_torque_y	2_ground_torque_z
            1.745000	           -3.637891	          562.299136	           30.522954	            0.413016	            0.002722	           -0.385082	            0.010491	           -1.621544	           -0.088021	           -0.024154	            0.551301	           -0.015394	            0.941316	            0.001009	           -0.255282	           -0.064961	           -0.002740	           -0.034222
            1.746000	           -2.962824	          562.693768	           30.362592	            0.413340	            0.002721	           -0.385021	            0.008530	           -1.619963	           -0.087412	           -0.041075	            0.071984	           -0.001926	            0.941316	            0.001009	           -0.255282	           -0.031646	           -0.004388	           -0.033958
            1.747000	           -2.339390	          563.568440	           30.249656	            0.413349	            0.002720	           -0.384843	            0.006835	           -1.646527	           -0.088378	            0.005463	            0.231299	           -0.024279	            0.941316	            0.001009	           -0.255282	            0.002165	           -0.001600	            0.132100
            1.748000	           -1.800430	          564.363564	           30.105981	            0.413483	            0.002719	           -0.384596	            0.005340	           -1.673884	           -0.089293	           -0.023897	            0.630800	            0.015603	            0.941316	            0.001009	           -0.255282	           -0.115352	           -0.000025	           -0.054884
            1.749000	           -1.200339	          565.156998	           29.931579	            0.413618	            0.002719	           -0.384766	            0.003617	           -1.703011	           -0.090194	           -0.048448	            0.151997	            0.044563	            0.941316	            0.001009	           -0.255282	           -0.014736	           -0.001933	           -0.054942
            1.750000	           -0.739086	          565.634671	           29.855885	            0.413597	            0.002718	           -0.384476	            0.002263	           -1.732212	           -0.091431	           -0.023642	            0.711208	            0.000585	            0.941316	            0.001009	           -0.255282	           -0.098500	            0.004139	           -0.117355
            1.751000	           -0.277480	          566.269648	           29.704067	            0.413836	            0.002717	           -0.384445	            0.000862	           -1.759667	           -0.092305	           -0.047164	            0.551403	           -0.000114	            0.941316	            0.001009	           -0.255282	           -0.031377	           -0.006154	            0.007311
            1.752000	            0.162688	          567.224691	           29.629866	            0.413647	            0.002718	           -0.384398	           -0.000518	           -1.807084	           -0.094396	           -0.016498	            0.552386	            0.022964	            0.941316	            0.001009	           -0.255282	            0.136449	            0.001595	            0.048951
            1.753000	            0.615538	          567.541511	           29.553651	            0.413876	            0.002716	           -0.384207	           -0.001978	           -1.823822	           -0.094972	           -0.017539	            0.231029	            0.044789	            0.941316	            0.001009	           -0.255282	           -0.031503	            0.000011	            0.090703
            1.754000	            1.054632	          568.256968	           29.440500	            0.413915	            0.002716	           -0.384246	           -0.003419	           -1.841974	           -0.095430	           -0.017049	            0.392388	            0.014590	            0.941316	            0.001009	           -0.255282	            0.069245	            0.002566	           -0.034158
            1.755000	            1.515477	          568.652398	           29.349194	            0.414238	            0.002715	           -0.384362	           -0.004973	           -1.866171	           -0.096317	           -0.032089	            0.472514	            0.015011	            0.941316	            0.001009	           -0.255282	            0.052388	            0.001193	           -0.096419
            1.756000	            1.962088	          569.290466	           29.235691	            0.413967	            0.002716	           -0.384095	           -0.006638	           -1.926009	           -0.098909	           -0.049790	           -0.248227	            0.012137	            0.941316	            0.001009	           -0.255282	           -0.065170	           -0.010804	            0.007416
            1.757000	            2.519094	          570.800790	           29.186120	            0.414354	            0.002713	           -0.383890	           -0.008517	           -1.929947	           -0.098682	           -0.041097	            0.071607	           -0.001983	            0.941316	            0.001009	           -0.255282	           -0.031591	           -0.002259	            0.049179
            1.758000	            3.048697	          571.117297	           29.140418	            0.414437	            0.002713	           -0.383877	           -0.010489	           -1.964849	           -0.100254	           -0.025266	            0.231957	           -0.016763	            0.941316	            0.001009	           -0.255282	           -0.065177	            0.004903	           -0.117082
            1.759000	            3.739505	          571.591879	           29.079756	            0.414487	            0.002713	           -0.383946	           -0.012928	           -1.976110	           -0.100535	           -0.023947	            0.631215	            0.000064	            0.941316	            0.001009	           -0.255282	           -0.048223	            0.000472	           -0.013285
            1.760000	            4.513924	          571.906964	           29.117952	            0.414641	            0.002712	           -0.383876	           -0.015615	           -1.978417	           -0.100729	           -0.019449	           -0.327687	           -0.034363	            0.941316	            0.001009	           -0.255282	            0.018693	           -0.002478	            0.069948
            1.761000	            5.383478	          573.020023	           29.135651	            0.414490	            0.002713	           -0.383796	           -0.018753	           -1.996071	           -0.101492	            0.012573	            0.071261	            0.020968	            0.941316	            0.001009	           -0.255282	           -0.065189	           -0.003144	            0.007630
            1.762000	            6.365134	          573.414921	           29.227453	            0.414376	            0.002713	           -0.383913	           -0.022298	           -2.008747	           -0.102388	           -0.025770	            0.071576	            0.020881	            0.941316	            0.001009	           -0.255282	           -0.065194	           -0.009367	           -0.034029
            1.763000	            7.074197	          574.608455	           29.429245	            0.414246	            0.002713	           -0.383492	           -0.024778	           -2.012651	           -0.103080	           -0.024724	            0.391382	           -0.000840	            0.941316	            0.001009	           -0.255282	           -0.065136	           -0.002615	           -0.033960
            1.764000	            7.428639	          575.161756	           29.438098	            0.414678	            0.002711	           -0.383512	           -0.026230	           -2.030856	           -0.103944	           -0.010977	           -0.088302	           -0.010373	            0.941316	            0.001009	           -0.255282	           -0.098779	           -0.001135	           -0.075565
            1.765000	            7.562488	          576.037591	           29.570717	            0.414829	            0.002710	           -0.383281	           -0.027012	           -2.057531	           -0.105623	           -0.034230	           -0.167328	           -0.002943	            0.941316	            0.001009	           -0.255282	            0.018683	           -0.001200	           -0.054790
            1.766000	            7.702228	          576.513008	           29.656104	            0.415023	            0.002710	           -0.383579	           -0.027708	           -2.073960	           -0.106686	            0.005421	            0.231534	            0.013916	            0.941316	            0.001009	           -0.255282	            0.002203	            0.000082	            0.048836
            1.767000	            7.942911	          577.308262	           29.750097	            0.415153	            0.002709	           -0.383455	           -0.028827	           -2.095221	           -0.107972	           -0.025532	            0.151613	           -0.001799	            0.941316	            0.001009	           -0.255282	            0.018814	           -0.000996	            0.111512
            1.768000	            8.152803	          578.105318	           29.713939	            0.414854	            0.002710	           -0.383330	           -0.030280	           -2.147146	           -0.110361	           -0.041117	            0.071437	            0.020999	            0.941316	            0.001009	           -0.255282	           -0.065173	            0.001694	            0.007648
            1.769000	            8.447253	          578.979967	           29.846426	            0.415145	            0.002708	           -0.383217	           -0.031211	           -2.139231	           -0.110277	           -0.018370	           -0.007686	           -0.002349	            0.941316	            0.001009	           -0.255282	           -0.048487	           -0.000668	           -0.137857
            1.770000	            8.628006	          580.174147	           29.849824	            0.415160	            0.002708	           -0.383031	           -0.032344	           -2.174913	           -0.111899	           -0.026317	           -0.088224	           -0.017970	            0.941316	            0.001009	           -0.255282	           -0.098839	            0.004856	           -0.075401
            1.771000	            8.798762	          580.730903	           29.843585	            0.415373	            0.002706	           -0.382934	           -0.033510	           -2.211677	           -0.113657	           -0.015496	            0.870936	            0.024001	            0.941316	            0.001009	           -0.255282	           -0.031233	            0.003191	            0.007248
            1.772000	            9.046947	          581.526319	           29.838071	            0.415501	            0.002705	           -0.382696	           -0.034751	           -2.233725	           -0.114612	            0.013044	            0.230950	           -0.032329	            0.941316	            0.001009	           -0.255282	           -0.064966	           -0.003063	            0.090498
            1.773000	            9.364467	          582.480045	           29.710435	            0.415882	            0.002704	           -0.382655	           -0.036381	           -2.262939	           -0.115425	           -0.002013	            0.312541	           -0.031848	            0.941316	            0.001009	           -0.255282	            0.052449	            0.005875	           -0.054929
            1.774000	            9.887318	          583.037174	           29.688500	            0.415524	            0.002705	           -0.382675	           -0.038974	           -2.298203	           -0.117025	           -0.017041	            0.392226	            0.029856	            0.941316	            0.001009	           -0.255282	            0.102796	           -0.005839	            0.048991
